<?xml version="1.0" standalone="no"?>
<!DOCTYPE svg PUBLIC "-//W3C//DTD SVG 20010904//EN"
 "http://www.w3.org/TR/2001/REC-SVG-20010904/DTD/svg10.dtd">
<svg version="1.0" xmlns="http://www.w3.org/2000/svg"
 width="5335.000000pt" height="5334.000000pt" viewBox="0 0 5335.000000 5334.000000"
 preserveAspectRatio="xMidYMid meet">
<metadata>
Created by potrace 1.16, written by Peter Selinger 2001-2019
</metadata>
<g transform="translate(0.000000,5334.000000) scale(0.100000,-0.100000)"
fill="#000000" stroke="none">
<path d="M0 26670 l0 -26670 26675 0 26675 0 0 26670 0 26670 -26675 0 -26675
0 0 -26670z m23256 19002 c13 -9 34 -46 34 -62 0 -6 -11 -22 -25 -35 l-24 -25
-269 0 c-245 0 -272 2 -292 18 -27 22 -29 65 -5 92 17 19 32 20 294 20 152 0
281 -4 287 -8z m1018 -11 c11 -12 16 -31 14 -52 -5 -56 -21 -59 -316 -59
l-263 0 -24 25 c-30 29 -32 58 -5 85 19 19 33 20 298 20 262 0 280 -1 296 -19z
m1008 2 c18 -16 24 -59 10 -79 -20 -30 -55 -34 -310 -34 -247 0 -261 1 -286
21 -29 23 -33 54 -10 87 15 22 17 22 296 22 248 0 284 -2 300 -17z m1008 -3
c28 -28 25 -64 -7 -90 -26 -20 -35 -21 -301 -18 -257 3 -274 4 -288 22 -19 26
-18 65 3 88 15 17 37 18 295 18 265 0 279 -1 298 -20z m996 12 c13 -9 34 -46
34 -62 0 -6 -11 -22 -25 -35 l-24 -25 -268 0 c-227 0 -272 2 -291 16 -27 18
-30 69 -5 96 15 17 37 18 292 18 152 0 281 -4 287 -8z m1016 -9 c26 -23 24
-78 -4 -97 -19 -14 -64 -16 -291 -16 l-268 0 -24 25 c-30 29 -32 58 -5 85 19
19 33 20 297 20 243 0 279 -2 295 -17z m1010 0 c18 -16 24 -59 10 -79 -20 -30
-55 -34 -310 -34 -247 0 -261 1 -286 21 -31 25 -34 61 -6 89 19 19 33 20 297
20 243 0 279 -2 295 -17z m1008 -3 c28 -28 25 -64 -6 -89 -25 -20 -39 -21
-286 -21 -255 0 -290 4 -310 34 -13 19 -9 59 9 78 15 17 37 18 295 18 265 0
279 -1 298 -20z m1010 0 c27 -27 25 -56 -5 -85 l-24 -25 -268 0 c-227 0 -272
2 -291 16 -27 18 -30 69 -5 96 15 17 37 18 295 18 265 0 279 -1 298 -20z m820
-31 c176 -22 200 -31 200 -78 0 -55 -36 -74 -115 -61 -31 5 -149 19 -263 30
-113 12 -214 26 -224 31 -39 21 -30 91 13 107 24 9 173 -2 389 -29z m-9896 0
c31 -24 34 -61 7 -88 -13 -13 -46 -22 -117 -30 -54 -7 -173 -23 -263 -37 -90
-14 -175 -23 -188 -19 -51 12 -51 95 0 114 33 13 379 65 523 80 6 0 23 -8 38
-20z m10674 -144 c240 -60 376 -103 389 -121 29 -40 4 -104 -41 -104 -11 0
-56 11 -101 25 -44 13 -158 44 -253 69 -96 25 -180 50 -188 57 -33 27 -2 109
42 109 8 0 77 -16 152 -35z m-11664 -36 c14 -11 26 -29 26 -40 0 -41 -20 -58
-93 -79 -39 -12 -160 -48 -266 -81 -170 -52 -198 -59 -218 -48 -28 15 -39 52
-25 84 8 18 38 32 149 69 144 48 370 115 389 116 6 0 23 -9 38 -21z m12587
-268 c146 -59 347 -152 382 -175 58 -39 41 -116 -25 -116 -16 0 -63 17 -106
39 -42 21 -149 69 -237 106 -88 37 -166 75 -172 83 -29 36 1 102 45 102 10 0
61 -17 113 -39z m-13537 -62 c28 -22 34 -55 14 -82 -7 -9 -49 -33 -93 -52 -44
-20 -153 -73 -242 -117 -174 -86 -203 -92 -225 -43 -25 54 -9 69 165 157 181
90 326 157 343 158 6 0 23 -9 38 -21z m14474 -416 c57 -35 157 -99 222 -143
129 -87 146 -109 116 -155 -30 -45 -61 -35 -241 83 -90 59 -193 125 -227 147
-35 22 -65 48 -66 58 -10 50 29 92 73 80 11 -3 66 -35 123 -70z m-15373 -45
c26 -12 40 -42 33 -75 -2 -10 -82 -72 -188 -145 -102 -70 -205 -141 -229 -157
-52 -36 -70 -38 -99 -11 -24 23 -29 58 -9 82 23 29 405 294 447 311 8 3 16 6
17 6 1 1 14 -4 28 -11z m16157 -519 c159 -133 338 -302 344 -325 10 -37 -19
-74 -59 -74 -26 0 -50 17 -137 96 -58 53 -145 130 -195 172 -103 88 -114 100
-115 126 0 27 39 66 66 66 13 0 54 -26 96 -61z m-16936 -104 c25 -38 12 -65
-63 -130 -37 -33 -127 -117 -200 -187 -143 -139 -164 -150 -202 -102 -12 15
-21 33 -21 42 0 18 148 172 294 303 92 84 114 99 142 99 25 0 38 -7 50 -25z
m17617 -557 c79 -75 337 -397 337 -423 0 -34 -28 -65 -59 -65 -37 0 -46 9
-138 125 -44 55 -118 145 -166 200 -91 104 -102 132 -70 167 22 25 67 23 96
-4z m-18350 -139 c60 -32 51 -63 -61 -202 -53 -67 -128 -164 -166 -215 -86
-117 -125 -130 -166 -59 -14 25 -12 29 32 94 80 116 296 381 315 386 10 3 19
5 21 6 2 0 13 -4 25 -10z m10845 -64 c617 -58 1117 -196 1647 -454 322 -157
546 -311 761 -526 232 -231 380 -458 489 -749 165 -444 189 -1003 69 -1606
-138 -691 -426 -1400 -876 -2157 -133 -224 -252 -344 -419 -423 -153 -72 -200
-12 -150 195 34 140 80 254 196 490 121 246 207 449 315 745 331 908 417 1666
270 2390 -76 377 -183 599 -390 811 -284 290 -835 511 -1485 596 -199 26 -763
25 -980 -1 -769 -92 -1812 -381 -2706 -750 -1109 -457 -2132 -1076 -3049
-1845 -467 -392 -1043 -960 -1418 -1398 -552 -646 -926 -1336 -1102 -2033
-123 -489 -159 -1050 -95 -1473 109 -715 459 -1233 1079 -1596 194 -114 617
-316 871 -416 173 -68 499 -177 708 -236 576 -162 1105 -261 2262 -424 1174
-166 1697 -253 2235 -371 896 -198 1594 -432 2219 -746 167 -84 265 -128 286
-128 27 0 93 49 426 322 1062 868 1900 1546 2039 1650 71 53 267 144 293 135
5 -1 -73 -77 -174 -167 -534 -478 -1245 -1121 -1733 -1565 -302 -275 -555
-505 -562 -511 -21 -17 -18 -26 23 -68 98 -101 168 -104 433 -24 644 196 1194
324 2700 627 437 88 919 188 1070 221 317 71 437 90 570 90 139 0 299 -24 357
-53 26 -13 77 -35 111 -47 71 -26 84 -43 56 -70 -18 -17 -427 -135 -3732
-1076 -608 -174 -871 -253 -867 -261 2 -7 51 -86 108 -175 147 -230 189 -305
253 -453 108 -248 188 -524 231 -790 25 -159 25 -603 0 -765 -91 -580 -353
-1139 -789 -1683 -470 -587 -1072 -1075 -1886 -1530 -351 -195 -1174 -595
-1587 -769 -861 -365 -1610 -534 -2450 -555 -740 -18 -1518 101 -2235 342 -90
30 -169 55 -175 55 -6 0 -73 -52 -150 -116 -77 -63 -156 -124 -175 -134 -104
-54 -239 -64 -330 -23 -162 73 -226 293 -139 477 30 66 84 122 228 241 l129
105 -38 113 c-21 61 -48 159 -59 217 -118 593 48 1096 553 1685 621 722 1361
1314 2420 1934 1140 669 2348 1221 3891 1781 333 121 365 138 540 280 85 69
154 128 155 131 0 7 -387 196 -530 259 -354 156 -839 315 -1360 445 -516 129
-974 217 -2010 385 -1888 306 -2519 424 -2990 560 -569 164 -1058 380 -1547
683 -361 224 -619 452 -838 743 -320 422 -498 907 -582 1574 -14 117 -18 217
-18 510 1 323 3 384 23 535 79 583 234 1078 506 1617 377 746 973 1518 1742
2258 643 617 1454 1200 2354 1692 202 110 621 321 813 409 1170 537 2299 824
3472 883 136 7 568 -5 723 -19z m8116 -598 c30 -33 227 -355 262 -430 17 -35
17 -41 3 -65 -11 -20 -24 -28 -51 -30 -40 -3 -47 4 -108 113 -18 33 -76 129
-128 214 -82 134 -94 158 -86 180 8 23 45 50 68 51 5 0 23 -15 40 -33z
m-19536 -163 c37 -26 28 -65 -41 -182 -35 -59 -92 -161 -127 -227 -34 -66 -70
-126 -78 -132 -37 -30 -102 2 -102 49 0 21 116 243 208 398 65 110 92 128 140
94z m20008 -702 c19 -12 57 -96 138 -300 85 -213 90 -246 44 -272 -25 -13 -31
-13 -55 0 -21 12 -35 37 -61 105 -18 50 -62 159 -98 242 -67 160 -74 191 -48
217 16 17 61 21 80 8z m-20453 -214 l20 -27 -60 -158 c-33 -87 -75 -201 -93
-253 -38 -109 -53 -130 -89 -130 -31 0 -44 8 -59 36 -9 18 -4 45 32 150 66
197 146 393 164 404 28 16 64 7 85 -22z m20801 -737 c9 -10 26 -49 36 -87 30
-103 100 -418 100 -448 0 -30 -32 -66 -59 -66 -46 0 -61 29 -95 190 -19 85
-45 199 -60 253 -31 119 -32 131 -6 157 25 25 62 26 84 1z m-21119 -211 c23
-25 22 -43 -8 -180 -14 -63 -35 -167 -47 -230 -29 -159 -28 -157 -46 -174 -22
-22 -67 -20 -89 4 -18 19 -18 27 -6 108 21 153 90 455 108 474 21 24 65 23 88
-2z m21319 -782 c16 -27 31 -145 47 -386 l11 -173 -23 -25 c-28 -30 -59 -31
-86 -1 -17 19 -22 41 -27 147 -4 69 -14 190 -21 269 -18 172 -13 188 57 190
18 1 32 -7 42 -21z m-21484 -206 l22 -18 -12 -280 c-13 -298 -17 -314 -66
-314 -35 0 -55 11 -64 35 -9 23 4 417 16 509 10 77 56 107 104 68z m21528
-794 c9 -8 12 -78 12 -288 0 -153 -3 -286 -6 -295 -15 -37 -82 -38 -106 -1 -4
6 -8 135 -8 287 0 282 2 299 40 312 18 6 50 -1 68 -15z m-21550 -214 c22 -15
22 -17 22 -296 0 -308 -2 -318 -59 -318 -67 1 -71 20 -71 318 0 247 1 261 21
286 23 29 54 33 87 10z m21540 -790 c22 -15 22 -17 22 -299 0 -311 -1 -315
-60 -315 -59 0 -60 4 -60 315 0 282 0 284 22 299 12 9 29 16 38 16 9 0 26 -7
38 -16z m-21536 -221 c17 -15 18 -37 18 -295 0 -265 -1 -279 -20 -298 -28 -28
-64 -25 -89 6 -20 25 -21 39 -21 286 0 255 4 290 34 310 19 13 59 9 78 -9z
m21540 -790 c17 -15 18 -38 18 -296 0 -247 -2 -283 -17 -299 -20 -22 -61 -23
-85 -1 -17 15 -18 38 -18 296 0 247 2 283 17 299 20 22 61 23 85 1z m-21540
-220 c17 -15 18 -37 18 -294 0 -297 0 -298 -51 -314 -26 -8 -67 18 -74 48 -3
12 -5 140 -3 283 2 203 6 265 17 277 17 22 69 22 93 0z m21542 -789 c14 -14
16 -52 14 -302 l-3 -286 -27 -16 c-25 -13 -31 -13 -55 0 l-28 16 -3 286 c-3
315 -2 318 58 318 16 0 36 -7 44 -16z m-21544 -214 c19 -19 20 -33 20 -298 0
-262 -1 -280 -19 -296 -12 -11 -31 -16 -52 -14 -56 5 -59 21 -59 316 l0 263
25 24 c29 30 58 32 85 5z m21548 -798 c9 -12 12 -87 12 -298 0 -310 1 -307
-62 -307 -56 0 -58 9 -58 312 0 152 4 281 8 287 23 34 75 38 100 6z m-21550
-208 c22 -15 22 -17 22 -296 0 -308 -2 -318 -59 -318 -67 1 -71 20 -71 318 0
247 1 261 21 286 23 29 54 33 87 10z m21540 -790 c22 -15 22 -17 22 -299 0
-311 -1 -315 -60 -315 -59 0 -60 4 -60 315 0 282 0 284 22 299 12 9 29 16 38
16 9 0 26 -7 38 -16z m-21536 -221 c17 -15 18 -38 18 -299 0 -281 0 -283 -22
-298 -33 -23 -64 -19 -87 10 -20 25 -21 39 -21 286 0 255 4 290 34 310 19 13
59 9 78 -9z m21540 -790 c17 -15 18 -38 18 -296 0 -247 -2 -283 -17 -299 -20
-22 -61 -23 -85 -1 -17 15 -18 38 -18 296 0 247 2 283 17 299 20 22 61 23 85
1z m-21540 -220 c17 -15 18 -37 18 -295 0 -265 -1 -279 -20 -298 -27 -27 -56
-25 -86 5 l-25 25 3 273 c2 214 6 278 17 290 17 22 69 22 93 0z m21542 -789
c14 -14 16 -52 14 -302 l-3 -286 -27 -16 c-25 -13 -31 -13 -55 0 l-28 16 -3
283 c-2 254 -1 286 14 303 21 22 67 24 88 2z m-21561 -205 c12 -7 25 -17 29
-23 4 -6 8 -136 8 -288 0 -311 0 -312 -69 -306 -58 5 -61 18 -61 316 l0 263
25 24 c27 28 37 30 68 14z m21561 -805 c14 -14 16 -52 14 -302 l-3 -286 -27
-16 c-25 -13 -31 -13 -55 0 l-28 16 -3 286 c-3 315 -2 318 58 318 16 0 36 -7
44 -16z m-21544 -214 c19 -19 20 -33 20 -297 0 -243 -2 -279 -17 -295 -19 -22
-62 -23 -89 -4 -18 14 -19 31 -22 288 -3 266 -2 275 18 301 26 32 62 35 90 7z
m21538 -786 c22 -15 22 -17 22 -299 0 -311 -1 -315 -60 -315 -59 0 -60 4 -60
315 0 282 0 284 22 299 12 9 29 16 38 16 9 0 26 -7 38 -16z m-21536 -221 c17
-15 18 -38 18 -299 0 -281 0 -283 -22 -298 -33 -23 -64 -19 -87 10 -20 25 -21
39 -21 286 0 255 4 290 34 310 19 13 59 9 78 -9z m21540 -790 c17 -15 18 -38
18 -296 0 -247 -2 -283 -17 -299 -20 -22 -61 -23 -85 -1 -17 15 -18 38 -18
296 0 247 2 283 17 299 20 22 61 23 85 1z m-21540 -220 c17 -15 18 -37 18
-295 0 -265 -1 -279 -20 -298 -27 -27 -56 -25 -86 5 l-25 25 3 276 c3 259 4
276 22 290 26 19 65 18 88 -3z m21540 -790 c17 -15 18 -38 18 -296 0 -247 -2
-283 -17 -299 -20 -22 -61 -23 -85 -1 -17 15 -18 38 -18 296 0 247 2 283 17
299 20 22 61 23 85 1z m-21559 -204 c12 -7 25 -17 29 -23 4 -6 8 -135 8 -286
0 -151 -4 -280 -8 -286 -25 -39 -90 -36 -111 5 -15 27 -15 535 0 562 6 11 20
24 32 29 29 11 25 12 50 -1z m21561 -805 c14 -14 16 -52 14 -302 l-3 -286 -27
-16 c-25 -13 -31 -13 -55 0 l-28 16 -3 286 c-3 315 -2 318 58 318 16 0 36 -7
44 -16z m-21544 -214 c19 -19 20 -33 20 -297 0 -243 -2 -279 -17 -295 -19 -22
-62 -23 -89 -4 -18 14 -19 31 -22 290 l-3 276 25 25 c30 30 59 32 86 5z
m21538 -786 c22 -15 22 -17 22 -299 0 -311 -1 -315 -60 -315 -59 0 -60 4 -60
315 0 282 0 284 22 299 12 9 29 16 38 16 9 0 26 -7 38 -16z m-21536 -221 c17
-15 18 -38 18 -296 0 -307 -2 -317 -59 -317 -67 1 -71 20 -71 318 0 247 1 261
21 286 24 30 63 34 91 9z m21536 -789 c22 -15 22 -17 22 -299 0 -244 -2 -286
-16 -299 -20 -21 -63 -20 -86 1 -17 15 -18 38 -18 299 0 281 0 283 22 298 12
9 29 16 38 16 9 0 26 -7 38 -16z m-21536 -221 c17 -15 18 -37 18 -295 0 -265
-1 -279 -20 -298 -28 -28 -64 -25 -90 7 -20 26 -21 35 -18 301 3 257 4 274 22
288 26 19 65 18 88 -3z m21540 -790 c17 -15 18 -38 18 -296 0 -247 -2 -283
-17 -299 -20 -22 -61 -23 -85 -1 -17 15 -18 38 -18 296 0 247 2 283 17 299 20
22 61 23 85 1z m-21559 -204 c12 -7 25 -17 29 -23 4 -6 8 -135 8 -286 0 -151
-4 -280 -8 -286 -9 -13 -46 -34 -62 -34 -6 0 -22 11 -35 25 l-25 24 0 266 c0
277 3 299 43 315 29 11 25 12 50 -1z m21561 -805 c14 -14 16 -52 14 -302 l-3
-286 -27 -16 c-25 -13 -31 -13 -55 0 l-28 16 -3 286 c-3 315 -2 318 58 318 16
0 36 -7 44 -16z m-21544 -214 c19 -19 20 -33 20 -298 0 -262 -1 -280 -19 -296
-12 -11 -31 -16 -52 -14 -56 5 -59 21 -59 316 l0 263 25 24 c29 30 58 32 85 5z
m21547 -794 c11 -11 17 -147 14 -353 -1 -110 -4 -113 -136 -113 -96 0 -105 2
-119 22 -39 55 -8 95 74 100 l55 3 2 150 c2 83 5 160 8 173 9 39 70 50 102 18z
m-21549 -212 c18 -13 22 -25 22 -73 l0 -58 157 -2 c172 -1 193 -8 193 -61 0
-56 -18 -60 -231 -61 -107 0 -203 3 -213 7 -26 10 -36 46 -36 133 0 64 4 83
21 105 23 29 54 33 87 10z m20915 -156 c9 -11 17 -28 17 -38 0 -10 -8 -27 -17
-39 -18 -21 -24 -22 -293 -22 -269 0 -275 1 -292 22 -10 12 -18 29 -18 39 0
10 8 27 18 39 16 19 28 21 167 23 83 2 206 2 275 0 112 -3 127 -5 143 -24z
m-19581 5 c22 -20 23 -61 1 -85 -15 -17 -37 -18 -294 -18 -276 0 -278 0 -293
22 -9 12 -16 29 -16 38 0 9 7 26 16 38 15 22 17 22 291 22 243 0 279 -2 295
-17z m988 -15 c13 -25 13 -31 0 -55 l-16 -28 -279 -3 c-275 -2 -280 -2 -297
19 -22 26 -23 48 -2 77 l15 22 282 -2 281 -3 16 -27z m980 0 c13 -25 13 -31 0
-55 l-16 -28 -279 -3 c-275 -2 -280 -2 -297 19 -22 26 -23 48 -2 77 l15 22
282 -2 281 -3 16 -27z m980 0 c13 -25 13 -31 0 -55 l-16 -28 -278 -3 c-249 -2
-281 -1 -298 14 -23 21 -23 62 -1 86 15 17 35 18 297 16 l280 -3 16 -27z m970
16 c20 -23 16 -75 -5 -90 -15 -11 -77 -14 -289 -14 -237 0 -272 2 -288 17 -22
20 -23 61 -1 85 15 17 37 18 293 18 239 0 279 -2 290 -16z m974 0 c9 -8 16
-28 16 -44 0 -59 -5 -60 -302 -60 -239 0 -274 2 -290 17 -22 20 -23 61 -1 85
15 17 37 18 289 18 234 0 275 -2 288 -16z m980 0 c9 -8 16 -28 16 -44 0 -59
-5 -60 -305 -60 -300 0 -305 1 -305 60 0 59 5 60 305 60 235 0 276 -2 289 -16z
m980 0 c9 -8 16 -28 16 -44 0 -59 -5 -60 -305 -60 -300 0 -305 1 -305 60 0 59
5 60 305 60 235 0 276 -2 289 -16z m978 -1 c22 -20 23 -61 1 -85 -15 -17 -37
-18 -287 -18 -149 0 -276 4 -282 8 -35 23 -36 91 -2 105 7 3 134 6 282 6 237
1 272 -1 288 -16z m980 0 c22 -20 23 -61 1 -85 -15 -17 -37 -18 -294 -18 -276
0 -278 0 -293 22 -9 12 -16 29 -16 38 0 9 7 26 16 38 15 22 17 22 291 22 243
0 279 -2 295 -17z m980 0 c22 -20 23 -61 1 -85 -15 -17 -37 -18 -294 -18 -276
0 -278 0 -293 22 -9 12 -16 29 -16 38 0 9 7 26 16 38 15 22 17 22 291 22 243
0 279 -2 295 -17z m988 -15 c13 -25 13 -31 0 -55 l-16 -28 -279 -3 c-275 -2
-280 -2 -297 19 -22 26 -23 48 -2 77 l15 22 282 -2 281 -3 16 -27z m980 0 c13
-25 13 -31 0 -55 l-16 -28 -278 -3 c-249 -2 -281 -1 -298 14 -23 21 -23 62 -1
86 15 17 35 18 297 16 l280 -3 16 -27z m979 1 c12 -22 12 -29 0 -55 l-14 -29
-279 -3 c-249 -2 -281 -1 -298 14 -23 21 -23 62 -1 86 15 17 35 18 297 16
l280 -3 15 -26z m956 25 c37 -15 38 -82 1 -106 -6 -4 -132 -8 -280 -8 -237 0
-272 2 -288 17 -22 20 -23 61 -1 85 15 17 37 18 284 18 147 0 275 -3 284 -6z
m989 -10 c9 -8 16 -28 16 -44 0 -59 -5 -60 -305 -60 -300 0 -305 1 -305 60 0
59 5 60 305 60 235 0 276 -2 289 -16z m980 0 c9 -8 16 -28 16 -44 0 -59 -5
-60 -305 -60 -300 0 -305 1 -305 60 0 59 5 60 305 60 235 0 276 -2 289 -16z
m978 -1 c22 -20 23 -61 1 -85 -15 -17 -37 -18 -289 -18 -299 0 -304 1 -304 60
0 59 5 60 302 60 239 0 274 -2 290 -17z m980 0 c22 -20 23 -61 1 -85 -15 -17
-37 -18 -288 -18 -301 0 -308 1 -308 60 0 58 7 60 307 60 237 0 272 -2 288
-17z m980 0 c22 -20 23 -61 1 -85 -15 -17 -37 -18 -294 -18 -276 0 -278 0
-293 22 -9 12 -16 29 -16 38 0 9 7 26 16 38 15 22 17 22 291 22 243 0 279 -2
295 -17z m-26101 -3267 c145 -28 303 -93 481 -198 l67 -40 38 23 c21 13 92 58
157 101 66 43 123 78 128 78 4 0 8 -290 8 -645 0 -355 -4 -645 -8 -645 -14 0
-158 126 -179 157 -20 29 -69 138 -147 330 -88 217 -156 332 -253 429 -199
199 -478 265 -752 179 -291 -92 -459 -398 -361 -657 35 -94 96 -175 245 -324
158 -159 340 -307 660 -539 121 -88 258 -192 305 -231 108 -90 252 -240 312
-324 104 -146 215 -395 268 -594 48 -185 55 -246 54 -466 0 -182 -3 -219 -27
-331 -51 -240 -162 -505 -276 -656 -286 -380 -764 -524 -1236 -373 -54 18
-171 69 -260 115 l-161 82 -175 -103 c-96 -57 -180 -103 -186 -104 -10 0 -13
147 -13 705 l0 705 26 10 c14 6 43 10 65 10 59 0 83 -31 125 -169 193 -634
299 -842 488 -969 136 -91 261 -125 451 -125 213 1 347 49 475 169 80 76 131
161 170 282 44 135 57 264 37 372 -49 278 -153 391 -822 900 -335 255 -472
369 -582 483 -210 219 -337 455 -410 767 -30 130 -43 417 -24 551 77 536 371
908 812 1029 153 41 336 47 500 16z m16152 3 c178 -36 386 -131 598 -273 98
-65 88 -69 172 60 62 95 102 124 166 124 25 0 56 -3 69 -6 l22 -6 0 -639 0
-639 -26 -10 c-14 -6 -46 -10 -71 -10 -70 0 -89 27 -157 231 -85 258 -221 595
-261 649 -19 26 -65 76 -102 111 -156 147 -299 209 -479 209 -166 0 -293 -49
-392 -149 -115 -117 -180 -319 -254 -791 -20 -125 -22 -184 -26 -805 -4 -717
12 -1858 29 -1990 11 -89 44 -227 84 -352 35 -110 98 -194 180 -239 188 -104
429 -44 544 135 83 128 131 400 150 846 10 212 1 520 -17 640 l-7 50 -100 26
c-111 29 -159 50 -169 74 -3 9 -6 37 -6 61 l0 44 776 0 c734 0 775 -1 770 -17
-3 -10 -14 -45 -23 -77 -18 -59 -19 -60 -67 -72 -27 -7 -61 -24 -74 -38 -23
-23 -26 -35 -33 -148 -20 -295 -66 -557 -135 -763 -182 -543 -546 -881 -1072
-997 -80 -18 -131 -22 -292 -22 -220 -1 -300 11 -475 71 -214 74 -371 179
-558 372 -270 281 -438 628 -517 1071 -61 341 -85 642 -77 968 10 432 75 776
214 1127 240 607 573 964 1058 1134 180 64 375 78 558 40z m-11025 -107 c18
-13 41 -40 51 -60 16 -31 332 -1238 831 -3167 145 -561 270 -1026 281 -1047 5
-9 32 -33 61 -54 61 -44 228 -184 228 -191 0 -3 -9 -18 -21 -34 l-20 -29 -749
0 -749 0 -6 44 c-17 108 15 143 145 157 102 11 138 22 146 42 5 14 -70 344
-182 797 -48 191 -72 271 -87 288 -42 45 -96 52 -431 52 -178 0 -327 -4 -347
-10 -50 -14 -101 -50 -117 -82 -15 -31 -122 -423 -215 -785 -62 -239 -64 -252
-47 -268 27 -25 78 -35 175 -35 135 0 175 -31 183 -140 l4 -60 -470 0 -471 0
-10 38 c-21 74 -11 120 32 144 12 7 66 15 119 18 94 5 99 7 132 39 23 22 43
56 55 95 19 56 217 760 922 3271 138 489 260 907 272 928 33 59 76 78 172 75
65 -3 86 -7 113 -26z m16541 -6 c21 -15 49 -38 61 -52 23 -24 23 -24 4 -39
-10 -8 -46 -29 -79 -47 -54 -29 -69 -32 -144 -32 l-84 -1 -14 -45 c-11 -38
-12 -270 -3 -1535 14 -1825 19 -2049 54 -2197 76 -327 230 -449 566 -449 209
0 349 50 465 166 73 73 111 143 163 300 74 221 74 217 82 765 12 768 12 2908
-1 2953 -6 24 -16 37 -27 38 -52 1 -234 17 -237 21 -12 12 -27 98 -21 121 14
57 36 62 311 65 137 2 302 1 365 -3 l115 -7 62 -62 63 -61 -23 -28 c-22 -28
-24 -29 -182 -39 -88 -6 -162 -12 -164 -14 -3 -3 -8 -734 -12 -1626 -8 -1692
-9 -1702 -54 -1933 -127 -637 -405 -872 -1100 -925 -427 -33 -834 92 -1078
329 -174 168 -268 377 -297 653 -31 305 -33 420 -37 1940 l-4 1556 -32 6 c-18
3 -77 10 -132 16 -87 10 -103 14 -122 36 -13 14 -23 28 -23 32 0 4 25 32 55
62 l56 55 157 6 c86 4 403 5 704 4 l548 -2 39 -27z m6026 24 c502 -37 824
-120 1060 -274 293 -191 425 -487 385 -869 -28 -275 -143 -495 -341 -651 -169
-134 -373 -216 -781 -317 -120 -29 -218 -56 -218 -59 0 -3 60 -30 133 -59 480
-193 706 -376 863 -696 95 -195 128 -346 144 -657 30 -579 36 -643 76 -726 32
-66 77 -97 164 -115 58 -12 67 -17 94 -54 21 -30 27 -48 22 -66 -24 -99 -277
-187 -495 -173 -111 7 -199 27 -303 71 -219 92 -405 289 -471 500 -34 107 -63
323 -107 815 -50 557 -72 680 -142 813 -39 73 -120 147 -202 187 -68 32 -194
65 -288 76 l-58 7 0 -1056 0 -1057 25 -16 c18 -12 56 -18 123 -22 53 -2 109
-11 123 -18 35 -18 51 -60 47 -125 l-3 -54 -800 0 -800 0 0 65 c0 61 1 65 33
86 18 13 76 32 130 44 53 12 103 23 110 25 10 4 12 426 10 2087 l-3 2083 -172
14 c-95 8 -173 17 -173 21 0 5 108 149 123 162 4 4 705 13 1142 16 226 1 473
-3 550 -8z m5628 -1 c52 -14 73 -58 61 -125 l-9 -49 -55 -7 c-30 -5 -98 -11
-152 -14 -87 -5 -97 -8 -104 -27 -12 -32 -16 -2264 -5 -2957 8 -549 11 -602
30 -693 47 -215 94 -329 169 -409 93 -100 206 -138 406 -138 270 0 455 92 570
284 79 132 134 391 156 732 11 177 13 3080 2 3154 l-7 45 -96 6 c-103 6 -146
22 -181 70 -18 24 -18 29 -5 60 31 73 12 70 430 70 225 0 383 -3 394 -9 14 -8
103 -150 103 -166 0 -1 -53 -6 -117 -10 -65 -4 -153 -9 -195 -13 l-78 -6 0
-1336 c-1 -1389 -8 -1814 -35 -1991 -21 -136 -59 -324 -95 -474 -92 -373 -314
-562 -770 -655 -300 -61 -591 -52 -848 25 -199 60 -369 153 -490 268 -159 151
-245 319 -294 571 -22 109 -22 120 -25 1851 l-4 1742 -102 6 c-171 11 -173 12
-186 55 -23 77 -6 123 52 140 46 13 1432 14 1480 0z m-21623 -729 l0 -720 -26
-10 c-41 -16 -89 -12 -116 10 -33 25 -48 64 -103 264 -85 310 -184 594 -242
696 -95 165 -265 269 -469 287 l-73 6 -8 -29 c-4 -16 -8 -936 -8 -2044 l0
-2015 21 -40 c36 -70 68 -80 224 -77 150 2 183 -5 205 -49 15 -29 19 -87 9
-126 l-6 -23 -939 0 -939 0 -11 27 c-5 15 -9 49 -7 76 2 41 8 54 31 71 26 19
44 21 223 24 l194 3 0 2089 0 2088 -41 7 c-49 8 -134 0 -209 -21 -151 -43
-250 -133 -334 -306 -66 -135 -148 -374 -217 -628 -27 -102 -57 -203 -66 -224
-28 -64 -93 -91 -157 -66 l-26 10 0 720 0 720 1545 0 1545 0 0 -720z m6685
-6065 c134 -23 254 -63 380 -124 452 -221 725 -648 725 -1136 0 -147 -19 -265
-65 -402 -42 -126 -81 -203 -157 -315 -191 -279 -492 -476 -836 -545 -122 -25
-413 -25 -532 0 -555 117 -933 490 -1036 1023 -25 130 -23 348 5 481 118 562
574 975 1140 1033 94 10 270 3 376 -15z m15834 -5 c180 -50 331 -172 403 -326
25 -53 64 -187 81 -280 6 -31 4 -32 -38 -43 -112 -28 -168 -4 -213 92 -16 34
-44 92 -61 129 -83 176 -260 276 -436 248 -228 -36 -371 -181 -408 -412 -18
-116 30 -250 118 -327 78 -68 171 -107 483 -202 180 -55 288 -105 367 -170
109 -89 188 -216 221 -354 23 -95 23 -278 0 -365 -63 -239 -245 -423 -496
-502 -66 -20 -95 -23 -235 -23 -186 0 -239 12 -383 81 -198 96 -345 289 -344
455 0 109 42 169 118 169 43 0 95 -63 122 -147 55 -172 184 -298 356 -348 79
-23 228 -17 311 13 83 30 185 103 234 165 128 166 148 399 49 564 -75 125
-199 197 -516 299 -114 36 -239 81 -278 100 -236 112 -359 298 -357 539 3 353
226 609 578 665 85 13 238 4 324 -20z m-20523 -15 c22 -5 124 -82 124 -93 -1
-4 -24 -25 -52 -46 -50 -39 -53 -40 -162 -48 -61 -4 -248 -7 -416 -6 -269 2
-309 0 -336 -14 -62 -34 -64 -46 -64 -453 0 -319 2 -371 16 -401 32 -68 34
-68 469 -70 215 -1 402 -2 417 -3 14 0 40 -13 57 -27 27 -22 31 -33 31 -72 0
-26 -5 -64 -11 -84 l-10 -38 -426 0 c-406 0 -429 -1 -468 -20 -74 -36 -74 -32
-74 -501 0 -228 -5 -431 -10 -451 -8 -35 -88 -157 -103 -158 -8 0 -92 98 -106
125 -7 13 -11 387 -12 1125 -1 608 -2 1120 -1 1137 1 46 47 94 95 102 44 7
1010 3 1042 -4z m9699 1 c340 -5 384 -10 503 -58 105 -43 173 -89 262 -178
128 -128 184 -237 216 -423 42 -241 -33 -495 -192 -653 -92 -91 -185 -139
-383 -198 -85 -25 -156 -48 -158 -50 -2 -2 145 -204 327 -450 l330 -447 -15
-29 c-9 -17 -17 -30 -18 -30 -28 3 -196 53 -221 66 -21 12 -77 72 -142 154
-129 162 -677 891 -672 894 2 1 102 14 223 29 232 28 334 51 417 93 109 55
211 181 250 309 34 107 31 272 -5 378 -43 125 -106 210 -205 279 -98 68 -237
92 -648 110 -253 11 -274 11 -298 -6 -15 -9 -31 -28 -36 -42 -6 -16 -10 -450
-10 -1124 0 -1033 -1 -1098 -17 -1105 -10 -3 -45 -9 -79 -12 -57 -5 -63 -4
-95 25 l-34 30 -6 1149 c-3 647 -2 1168 3 1194 11 56 43 90 95 98 21 4 94 5
163 4 69 -2 269 -5 445 -7z m4472 -12 c47 -35 77 -95 252 -509 93 -220 264
-625 381 -900 117 -275 237 -560 268 -634 55 -133 55 -133 73 -110 60 81 102
178 635 1497 52 128 124 306 160 395 78 192 100 229 157 259 35 19 57 23 132
23 121 -1 167 -26 194 -104 8 -25 11 -337 11 -1139 l0 -1105 -40 -51 c-21 -29
-50 -62 -64 -75 l-25 -23 -33 37 c-18 21 -42 52 -53 69 -20 30 -20 52 -25 991
-5 916 -6 962 -24 1004 l-19 43 -13 -24 c-22 -42 -502 -1163 -596 -1393 -229
-559 -265 -633 -336 -688 -52 -40 -79 -44 -126 -18 -52 28 -100 90 -136 172
-262 605 -340 789 -620 1454 -130 311 -162 375 -219 445 l-36 44 -5 -1058 -5
-1059 -45 -14 c-52 -15 -130 -20 -149 -8 -41 25 -41 20 -41 1274 l0 1199 93
15 c124 21 218 18 254 -9z m-28902 -119 c2 -11 6 -330 9 -710 5 -731 9 -800
57 -1006 35 -154 98 -261 202 -346 111 -91 227 -133 372 -133 274 0 508 186
575 458 39 161 42 221 49 988 l6 750 50 67 c28 36 52 66 55 66 7 0 82 -97 99
-128 12 -21 13 -127 8 -656 -8 -787 -24 -1089 -68 -1233 -34 -110 -87 -200
-164 -278 -163 -165 -401 -245 -685 -231 -424 21 -713 305 -760 747 -13 131
-13 1620 0 1656 6 15 27 49 46 75 l35 48 55 -57 c30 -31 56 -66 59 -77z m5060
111 c71 -33 115 -82 219 -241 317 -488 1090 -1636 1165 -1730 l56 -70 12 75
c8 51 12 280 13 725 1 358 5 754 8 881 l7 232 49 71 c27 39 53 71 57 71 4 0
29 -35 56 -77 l48 -78 0 -1075 0 -1075 -33 -75 c-49 -113 -37 -108 -143 -61
-113 50 -122 58 -186 146 -89 126 -493 719 -887 1304 -213 316 -404 594 -423
618 -25 31 -43 43 -57 41 l-21 -3 -5 -1010 c-5 -972 -6 -1012 -24 -1040 -19
-30 -86 -95 -97 -95 -3 0 -29 24 -56 53 l-50 52 -4 250 c-3 138 -3 668 0 1180
l6 929 40 12 c22 7 76 13 120 13 64 1 90 -4 130 -23z m5162 -23 c68 -86 63 14
63 -1200 -1 -1016 -2 -1100 -18 -1129 -22 -40 -76 -114 -82 -113 -7 0 -73 87
-91 119 -21 38 -21 2213 0 2250 18 31 83 110 91 110 4 0 20 -17 37 -37z"/>
<path d="M29545 30064 c-77 -24 -232 -76 -345 -115 -113 -39 -277 -95 -365
-124 -88 -29 -230 -82 -315 -118 -85 -36 -197 -82 -249 -103 l-94 -37 -596
-551 c-2415 -2231 -3469 -3170 -4925 -4386 -180 -150 -325 -274 -323 -277 8
-7 359 -113 492 -148 401 -106 782 -116 1316 -35 160 24 488 89 744 146 1294
290 2406 754 3410 1421 395 263 669 480 943 747 584 570 952 1220 1078 1901
25 139 31 480 10 625 -46 312 -155 592 -341 871 -115 172 -184 230 -275 228
-14 0 -88 -20 -165 -45z"/>
<path d="M26640 28878 c-1499 -661 -2484 -1258 -3456 -2094 -317 -273 -546
-505 -726 -735 -115 -147 -249 -353 -313 -483 -84 -169 -196 -531 -183 -590 2
-10 410 320 1218 986 668 551 1746 1437 2395 1971 649 533 1189 978 1200 988
29 28 14 23 -135 -43z"/>
<path d="M22715 25216 c-93 -30 -297 -148 -453 -263 -168 -123 -272 -208 -272
-223 0 -44 134 -260 162 -260 31 0 437 381 543 511 158 191 165 281 20 235z"/>
<path d="M21573 24348 c-96 -102 -183 -234 -183 -278 0 -44 68 -43 176 5 42
19 177 96 213 121 2 2 -18 27 -44 56 -26 29 -62 74 -80 101 l-32 47 -50 -52z"/>
<path d="M14830 16345 c0 -4 -339 -1249 -356 -1307 -5 -17 17 -18 360 -18 286
0 366 3 366 13 0 16 -328 1296 -336 1308 -5 9 -34 13 -34 4z"/>
<path d="M37575 17824 c-16 -3 -54 -9 -82 -15 l-53 -10 0 -894 c0 -841 1 -893
18 -900 9 -4 80 -10 157 -12 122 -5 152 -3 225 16 124 31 185 64 266 145 120
120 173 262 195 526 14 167 6 493 -15 612 -51 280 -179 446 -396 513 -54 16
-253 28 -315 19z"/>
<path d="M28225 11040 c-432 -68 -788 -390 -901 -815 -36 -135 -44 -338 -19
-470 82 -436 456 -793 907 -865 123 -20 332 -8 443 24 411 121 722 459 800
869 117 615 -404 1241 -1050 1262 -66 2 -147 0 -180 -5z"/>
</g>
</svg>
